HIERARCHY
ROOT hip
{
  OFFSET 0 0 0
  CHANNELS 6 Xposition Yposition Zposition Zrotation Yrotation Xrotation
  JOINT abdomen
  {
    OFFSET 0 20.6881 -0.73152
    CHANNELS 3 Zrotation Xrotation Yrotation
    JOINT chest
    {
      OFFSET 0 11.7043 -0.48768
      CHANNELS 3 Zrotation Xrotation Yrotation
      JOINT neck
      {
        OFFSET 0 22.1894 -2.19456
        CHANNELS 3 Zrotation Xrotation Yrotation
        JOINT head
        {
          OFFSET -0.24384 7.07133 1.2192
          CHANNELS 3 Zrotation Xrotation Yrotation
          JOINT leftEye
          {
            OFFSET 4.14528 8.04674 8.04672
            CHANNELS 3 Zrotation Xrotation Yrotation
            End Site
            {
              OFFSET 1 0 0
            }
          }
          JOINT rightEye
          {
            OFFSET -3.6576 8.04674 8.04672
            CHANNELS 3 Zrotation Xrotation Yrotation
            End Site
            {
              OFFSET 1 0 0
            }
          }
        }
      }
      JOINT rCollar
      {
        OFFSET -2.68224 19.2634 -4.8768
        CHANNELS 3 Zrotation Xrotation Yrotation
        JOINT rShldr
        {
          OFFSET -8.77824 -1.95073 1.46304
          CHANNELS 3 Zrotation Xrotation Yrotation
          JOINT rForeArm
          {
            OFFSET -28.1742 -1.7115 0.48768
            CHANNELS 3 Zrotation Xrotation Yrotation
            JOINT rHand
            {
              OFFSET -22.5879 0.773209 7.07136
              CHANNELS 3 Zrotation Xrotation Yrotation
              JOINT rThumb1
              {
                OFFSET -1.2192 -0.487915 3.41376
                CHANNELS 3 Zrotation Xrotation Yrotation
                JOINT rThumb2
                {
                  OFFSET -3.37035 -0.52449 3.41376
                  CHANNELS 3 Zrotation Xrotation Yrotation
                  End Site
                  {
                    OFFSET -1.78271 -1.18214 1.43049
                  }
                }
              }
              JOINT rIndex1
              {
                OFFSET -7.75947 0.938293 5.60832
                CHANNELS 3 Zrotation Xrotation Yrotation
                JOINT rIndex2
                {
                  OFFSET -2.54057 -0.884171 1.56538
                  CHANNELS 3 Zrotation Xrotation Yrotation
                  End Site
                  {
                    OFFSET -1.62519 -0.234802 1.16502
                  }
                }
              }
              JOINT rMid1
              {
                OFFSET -8.24714 1.18213 3.41376
                CHANNELS 3 Zrotation Xrotation Yrotation
                JOINT rMid2
                {
                  OFFSET -3.10165 -0.590103 1.0647
                  CHANNELS 3 Zrotation Xrotation Yrotation
                  End Site
                  {
                    OFFSET -2.48547 -0.328903 0.83742
                  }
                }
              }
              JOINT rRing1
              {
                OFFSET -8.82822 0.546677 1.51678
                CHANNELS 3 Zrotation Xrotation Yrotation
                JOINT rRing2
                {
                  OFFSET -2.60934 -0.819778 -0.0198488
                  CHANNELS 3 Zrotation Xrotation Yrotation
                  End Site
                  {
                    OFFSET -2.33842 -0.294052 0.168128
                  }
                }
              }
              JOINT rPinky1
              {
                OFFSET -8.27202 -0.0477905 -0.4584
                CHANNELS 3 Zrotation Xrotation Yrotation
                JOINT rPinky2
                {
                  OFFSET -1.82734 -0.647385 -0.700984
                  CHANNELS 3 Zrotation Xrotation Yrotation
                  End Site
                  {
                    OFFSET -1.69225 -0.51767 -0.607171
                  }
                }
              }
            }
          }
        }
      }
      JOINT lCollar
      {
        OFFSET 2.68224 19.2634 -4.8768
        CHANNELS 3 Zrotation Xrotation Yrotation
        JOINT lShldr
        {
          OFFSET 8.77824 -1.95073 1.46304
          CHANNELS 3 Zrotation Xrotation Yrotation
          JOINT lForeArm
          {
            OFFSET 28.1742 -1.7115 0.48768
            CHANNELS 3 Zrotation Xrotation Yrotation
            JOINT lHand
            {
              OFFSET 22.5879 0.773209 7.07136
              CHANNELS 3 Zrotation Xrotation Yrotation
              JOINT lThumb1
              {
                OFFSET 1.2192 -0.487915 3.41376
                CHANNELS 3 Zrotation Xrotation Yrotation
                JOINT lThumb2
                {
                  OFFSET 3.37035 -0.52449 3.41376
                  CHANNELS 3 Zrotation Xrotation Yrotation
                  End Site
                  {
                    OFFSET 1.78271 -1.18214 1.43049
                  }
                }
              }
              JOINT lIndex1
              {
                OFFSET 7.75947 0.938293 5.60832
                CHANNELS 3 Zrotation Xrotation Yrotation
                JOINT lIndex2
                {
                  OFFSET 2.54057 -0.884171 1.56538
                  CHANNELS 3 Zrotation Xrotation Yrotation
                  End Site
                  {
                    OFFSET 1.62519 -0.234802 1.16502
                  }
                }
              }
              JOINT lMid1
              {
                OFFSET 8.24714 1.18213 3.41376
                CHANNELS 3 Zrotation Xrotation Yrotation
                JOINT lMid2
                {
                  OFFSET 3.10165 -0.590103 1.0647
                  CHANNELS 3 Zrotation Xrotation Yrotation
                  End Site
                  {
                    OFFSET 2.48547 -0.328903 0.83742
                  }
                }
              }
              JOINT lRing1
              {
                OFFSET 8.82822 0.546677 1.51678
                CHANNELS 3 Zrotation Xrotation Yrotation
                JOINT lRing2
                {
                  OFFSET 2.60934 -0.819778 -0.0198488
                  CHANNELS 3 Zrotation Xrotation Yrotation
                  End Site
                  {
                    OFFSET 2.33842 -0.294052 0.168128
                  }
                }
              }
              JOINT lPinky1
              {
                OFFSET 8.27202 -0.0477905 -0.4584
                CHANNELS 3 Zrotation Xrotation Yrotation
                JOINT lPinky2
                {
                  OFFSET 1.82734 -0.647385 -0.700984
                  CHANNELS 3 Zrotation Xrotation Yrotation
                  End Site
                  {
                    OFFSET 1.69225 -0.51767 -0.607171
                  }
                }
              }
            }
          }
        }
      }
    }
  }
  JOINT rButtock
  {
    OFFSET -8.77824 4.35084 1.2192
    CHANNELS 3 Zrotation Xrotation Yrotation
    JOINT rThigh
    {
      OFFSET 0 -1.70687 -2.19456
      CHANNELS 3 Zrotation Xrotation Yrotation
      JOINT rShin
      {
        OFFSET 0 -36.8199 0.73152
        CHANNELS 3 Zrotation Xrotation Yrotation
        JOINT rFoot
        {
          OFFSET 0.73152 -45.1104 -5.12064
          CHANNELS 3 Zrotation Xrotation Yrotation
          End Site
          {
            OFFSET -1.1221 -3.69964 12.103
          }
        }
      }
    }
  }
  JOINT lButtock
  {
    OFFSET 8.77824 4.35084 1.2192
    CHANNELS 3 Zrotation Xrotation Yrotation
    JOINT lThigh
    {
      OFFSET 0 -1.70687 -2.19456
      CHANNELS 3 Zrotation Xrotation Yrotation
      JOINT lShin
      {
        OFFSET 0 -36.8199 0.73152
        CHANNELS 3 Zrotation Xrotation Yrotation
        JOINT lFoot
        {
          OFFSET -0.73152 -45.1104 -5.12064
          CHANNELS 3 Zrotation Xrotation Yrotation
          End Site
          {
            OFFSET 1.1221 -3.69964 12.103
          }
        }
      }
    }
  }
}
MOTION
Frames:	7
Frame Time:	0.00833333
-141.062 78.6831 -5.31392 7.0799 117.838 380.912 1.02781 15.3068 9.95364 0.0209473 -1.36588 3.00877 -3.0707 -12.7523 0.0531853 -6.00552 16.582 3.79775 -0.0 0.0 0.0 -0.0 0.0 0.0 1.04336e-13 5.34117e-13 4.31386e-13 57.9535 41.2263 16.3321 -26.213 -23.992 57.7099 -0.321496 -15.9262 -2.29837 -1.09638e-09 -2.63837e-09 -4.22863e-09 -1.83377e-09 -4.63403e-09 -7.32439e-09 -1.09636e-09 -2.63839e-09 -4.22867e-09 7.73091 5.47488 0.417314 -1.09639e-09 -2.63837e-09 -4.22863e-09 2.90554 0.965183 0.102902 -1.09638e-09 -2.63837e-09 -4.22863e-09 10.2786 0.731801 0.0259123 -1.09639e-09 -2.63837e-09 -4.22861e-09 2.22167 -0.733487 -0.20892 1.04502e-13 5.34129e-13 4.31156e-13 -73.2691 8.85864 15.7522 11.2425 -4.95377 -20.136 0.027025 -7.07223 0.993207 -2.32494e-09 9.30533e-10 -2.80193e-09 -4.01588e-09 1.61152e-09 -4.84879e-09 -2.32495e-09 9.30529e-10 -2.80191e-09 -7.73091 5.47488 -0.417314 -2.32494e-09 9.30525e-10 -2.80193e-09 -2.90554 0.965183 -0.102902 -2.32495e-09 9.30525e-10 -2.80193e-09 -10.2786 0.731801 -0.0259123 -2.32494e-09 9.30528e-10 -2.80194e-09 -2.22167 -0.733487 0.20892 -2.03217e-16 0.0 -3.88251e-19 4.95682 12.1475 -11.0906 0.129241 8.6413 1.18113 -5.18676 -15.4713 -20.2865 2.03217e-16 0.0 3.88251e-19 28.3422 -54.3992 28.7675 1.35412 65.2005 -2.29068 2.29638 -11.8125 4.95424
-139.882 77.8388 -6.13578 7.2726 118.749 381.629 0.732756 14.7744 10.319 0.142011 -1.19054 3.10248 -3.65858 -12.7584 -0.465198 -4.19806 16.6106 2.74051 -0.0 0.0 0.0 -0.0 0.0 0.0 8.03707e-14 2.7482e-13 2.18561e-13 57.8899 41.1796 15.4735 -26.1433 -23.8029 57.4821 -0.30908 -15.6256 -2.25271 -5.23482e-10 -1.79945e-09 -2.62684e-09 -8.66596e-10 -3.15438e-09 -4.54685e-09 -5.23464e-10 -1.79947e-09 -2.62687e-09 7.73091 5.47488 0.417314 -5.23483e-10 -1.79946e-09 -2.62684e-09 2.90554 0.965183 0.102902 -5.23476e-10 -1.79946e-09 -2.62683e-09 10.2786 0.731801 0.0259123 -5.23491e-10 -1.79945e-09 -2.62682e-09 2.22167 -0.733487 -0.20892 8.04545e-14 2.74821e-13 2.18362e-13 -73.4296 11.4574 15.3743 12.3522 -5.69866 -22.3508 0.0994212 -11.0319 1.56027 -1.32624e-09 5.30816e-10 -2.23861e-09 -2.28399e-09 9.22648e-10 -3.87027e-09 -1.32625e-09 5.30812e-10 -2.23859e-09 -7.73091 5.47488 -0.417314 -1.32624e-09 5.3081e-10 -2.2386e-09 -2.90554 0.965183 -0.102902 -1.32625e-09 5.3081e-10 -2.2386e-09 -10.2786 0.731801 -0.0259123 -1.32624e-09 5.30813e-10 -2.23861e-09 -2.22167 -0.733487 0.20892 -2.03217e-16 0.0 -3.88251e-19 5.14629 13.2949 -10.9403 0.135947 7.96278 1.21039 -5.30523 -15.8297 -20.4562 2.03217e-16 0.0 3.88251e-19 29.5794 -54.8472 30.8998 1.5176 66.9384 -2.47327 2.12293 -11.8668 4.41056
-138.629 77.0923 -7.19917 6.7508 119.361 381.712 0.334241 14.1892 10.6814 0.270481 -1.0032 3.19034 -4.25392 -12.7358 -0.987823 -2.30218 16.5865 1.67038 -0.0 0.0 0.0 -0.0 0.0 0.0 5.278e-14 -1.65311e-14 -2.71625e-14 58.1479 41.136 14.2615 -26.0233 -23.4885 56.9843 -0.299691 -15.3918 -2.21732 1.19764e-10 -7.56779e-10 -6.8268e-10 2.17193e-10 -1.31747e-09 -1.17667e-09 1.19774e-10 -7.56787e-10 -6.82694e-10 7.73091 5.47488 0.417314 1.19765e-10 -7.56787e-10 -6.82678e-10 2.90554 0.965183 0.102902 1.19772e-10 -7.56787e-10 -6.82675e-10 10.2786 0.731801 0.0259123 1.19753e-10 -7.56783e-10 -6.82665e-10 2.22167 -0.733487 -0.20892 5.27747e-14 -1.65415e-14 -2.73294e-14 -73.7081 14.5537 14.9854 13.6544 -6.65376 -24.9648 0.256757 -15.1705 2.17672 -2.22759e-10 -8.24847e-12 -1.45372e-09 -3.71113e-10 -7.91112e-12 -2.5093e-09 -2.22769e-10 -8.25093e-12 -1.45371e-09 -7.73091 5.47488 -0.417314 -2.2276e-10 -8.25157e-12 -1.45372e-09 -2.90554 0.965183 -0.102902 -2.22766e-10 -8.25036e-12 -1.45372e-09 -10.2786 0.731801 -0.0259123 -2.2276e-10 -8.24807e-12 -1.45373e-09 -2.22167 -0.733487 0.20892 -2.03217e-16 0.0 -3.88251e-19 5.00658 13.8946 -10.7387 0.138637 8.16121 1.23541 -5.37359 -16.0097 -20.4094 2.03217e-16 0.0 3.88251e-19 30.3714 -55.0792 32.7065 1.69356 68.517 -2.65689 1.98164 -12.139 3.93567
-137.327 76.5018 -8.48712 5.6425 119.759 381.277 -0.0365827 13.8147 10.9336 0.348696 -0.864661 3.24791 -4.78121 -12.6365 -1.50455 -0.449152 16.359 0.582314 -0.0 0.0 0.0 -0.0 0.0 0.0 4.77157e-14 -2.06727e-13 -2.06637e-13 58.7887 41.028 12.7873 -25.8342 -23.0164 56.0888 -0.297005 -15.3253 -2.20726 5.04803e-10 -5.32043e-11 6.0698e-10 8.64309e-10 -7.8811e-11 1.05835e-09 5.04807e-10 -5.32087e-11 6.06974e-10 7.73091 5.47488 0.417314 5.04804e-10 -5.32136e-11 6.06983e-10 2.90554 0.965183 0.102902 5.04812e-10 -5.32137e-11 6.06984e-10 10.2786 0.731801 0.0259123 5.04792e-10 -5.32099e-11 6.06993e-10 2.22167 -0.733487 -0.20892 4.76545e-14 -2.06745e-13 -2.06786e-13 -73.8621 17.5382 14.4592 15.0448 -7.82915 -27.6807 0.437655 -18.4722 2.69094 4.22103e-10 -3.94532e-10 -8.96277e-10 7.46817e-10 -6.76068e-10 -1.54477e-09 4.22093e-10 -3.94534e-10 -8.96271e-10 -7.73091 5.47488 -0.417314 4.22102e-10 -3.94533e-10 -8.96274e-10 -2.90554 0.965183 -0.102902 4.22095e-10 -3.94532e-10 -8.96274e-10 -10.2786 0.731801 -0.0259123 4.221e-10 -3.9453e-10 -8.9628e-10 -2.22167 -0.733487 0.20892 -2.03217e-16 0.0 -3.88251e-19 4.58293 13.6796 -10.6559 0.133078 9.78258 1.25021 -5.35033 -15.6947 -20.2441 2.03217e-16 0.0 3.88251e-19 30.4006 -55.0422 33.6601 1.84518 69.6593 -2.79719 1.91911 -12.6672 3.66744
-135.994 76.0319 -9.89977 4.6608 120.087 381.052 -0.282641 13.6262 11.1289 0.279606 -0.750281 3.29261 -5.22285 -12.4423 -2.03702 1.39495 15.8422 -0.584279 -0.0 0.0 0.0 -0.0 0.0 0.0 7.53858e-14 -2.68722e-13 -3.05423e-13 59.9713 40.8373 10.9674 -25.5168 -22.2554 54.7188 -0.30607 -15.5585 -2.24246 5.81604e-10 1.60687e-10 9.50168e-10 9.92589e-10 2.95865e-10 1.65249e-09 5.81605e-10 1.60685e-10 9.50163e-10 7.73091 5.47488 0.417314 5.81605e-10 1.60679e-10 9.50172e-10 2.90554 0.965183 0.102902 5.81613e-10 1.60679e-10 9.50171e-10 10.2786 0.731801 0.0259123 5.81595e-10 1.60682e-10 9.50178e-10 2.22167 -0.733487 -0.20892 7.53147e-14 -2.68743e-13 -3.05572e-13 -73.8537 20.3405 13.7316 16.4386 -9.12973 -30.5521 0.572801 -20.7355 3.05296 4.10279e-10 -5.79636e-10 -6.8231e-10 7.26761e-10 -9.98422e-10 -1.17872e-09 4.1027e-10 -5.79639e-10 -6.82305e-10 -7.73091 5.47488 -0.417314 4.10278e-10 -5.79637e-10 -6.82307e-10 -2.90554 0.965183 -0.102902 4.10271e-10 -5.79636e-10 -6.82307e-10 -10.2786 0.731801 -0.0259123 4.10278e-10 -5.79634e-10 -6.82313e-10 -2.22167 -0.733487 0.20892 -2.03217e-16 0.0 -3.88251e-19 3.89404 12.5208 -10.6436 0.131005 13.069 1.25501 -5.27719 -14.7587 -19.9982 2.03217e-16 0.0 3.88251e-19 29.6178 -54.8016 33.6033 1.95385 70.3209 -2.8699 1.99191 -13.5759 3.73846
-134.717 75.7498 -11.2886 3.8002 120.935 380.742 -0.497683 13.5146 11.2976 0.121394 -0.641251 3.32948 -5.61484 -12.1807 -2.58181 3.2555 15.1309 -1.80117 -0.0 0.0 0.0 -0.0 0.0 0.0 1.20765e-13 -2.70735e-13 -3.72398e-13 61.5964 40.5726 8.79965 -25.0455 -21.1909 52.9902 -0.324221 -16.0024 -2.30983 5.12867e-10 1.76357e-10 8.87259e-10 8.75326e-10 3.19815e-10 1.54222e-09 5.12867e-10 1.76358e-10 8.87252e-10 7.73091 5.47488 0.417314 5.12868e-10 1.76352e-10 8.87265e-10 2.90554 0.965183 0.102902 5.12876e-10 1.76353e-10 8.87262e-10 10.2786 0.731801 0.0259123 5.12862e-10 1.76354e-10 8.87267e-10 2.22167 -0.733487 -0.20892 1.20708e-13 -2.70755e-13 -3.7256e-13 -73.7619 23.2595 12.8666 17.8303 -10.5124 -33.7187 0.674625 -22.4804 3.33623 5.81939e-11 -7.09529e-10 -5.73587e-10 1.1681e-10 -1.22681e-09 -9.97617e-10 5.81871e-11 -7.09532e-10 -5.73582e-10 -7.73091 5.47488 -0.417314 5.81932e-11 -7.0953e-10 -5.73583e-10 -2.90554 0.965183 -0.102902 5.81864e-11 -7.0953e-10 -5.73583e-10 -10.2786 0.731801 -0.0259123 5.81969e-11 -7.09527e-10 -5.73588e-10 -2.22167 -0.733487 0.20892 -2.03217e-16 0.0 -3.88251e-19 2.91629 10.5797 -10.6512 0.130291 17.6971 1.25876 -5.17301 -13.3801 -19.6281 2.03217e-16 0.0 3.88251e-19 28.1706 -54.3772 32.8191 2.02297 70.6398 -2.88377 2.17338 -14.8064 4.04762
-133.456 75.5882 -12.6904 3.4402 121.87 380.74 -0.844398 13.6155 11.2985 0.0499597 -0.607038 3.31554 -5.96199 -11.8724 -3.09123 4.99121 14.3477 -2.94103 -0.0 0.0 0.0 -0.0 0.0 0.0 1.72153e-13 -2.22455e-13 -4.03394e-13 63.3333 40.2189 6.50165 -24.456 -19.9658 51.0543 -0.342564 -16.4261 -2.37455 2.89135e-10 1.14026e-10 6.6991e-10 4.92414e-10 2.05964e-10 1.16309e-09 2.89137e-10 1.14028e-10 6.699e-10 7.73091 5.47488 0.417314 2.89136e-10 1.14024e-10 6.69917e-10 2.90554 0.965183 0.102902 2.89145e-10 1.14025e-10 6.69912e-10 10.2786 0.731801 0.0259123 2.89135e-10 1.14025e-10 6.69916e-10 2.22167 -0.733487 -0.20892 1.72122e-13 -2.22475e-13 -4.03573e-13 -73.5202 26.2359 11.8996 19.2373 -12.0662 -37.0242 0.749888 -23.7772 3.54992 -4.25828e-10 -7.8363e-10 -4.87697e-10 -7.2226e-10 -1.36001e-09 -8.57046e-10 -4.25834e-10 -7.83634e-10 -4.87691e-10 -7.73091 5.47488 -0.417314 -4.25829e-10 -7.83632e-10 -4.87693e-10 -2.90554 0.965183 -0.102902 -4.25836e-10 -7.83633e-10 -4.87693e-10 -10.2786 0.731801 -0.0259123 -4.25822e-10 -7.8363e-10 -4.87697e-10 -2.22167 -0.733487 0.20892 -2.03217e-16 0.0 -3.88251e-19 1.61369 8.02901 -10.8467 0.105087 23.3648 1.27074 -4.97141 -11.6953 -19.1133 2.03217e-16 0.0 3.88251e-19 26.0654 -53.6479 31.4686 2.03981 70.6131 -2.83493 2.37961 -16.1217 4.38064
